<svg xmlns="http://www.w3.org/2000/svg" xmlns:xlink="http://www.w3.org/1999/xlink" contentStyleType="text/css" data-diagram-type="CLASS" height="101px" preserveAspectRatio="none" style="width:367px;height:101px;background:#FFFFFF;" version="1.1" viewBox="0 0 367 101" width="367px" zoomAndPan="magnify"><defs/><g><!--class Account--><g class="entity" data-entity="Account" data-source-line="1" data-uid="ent0002" id="entity_Account"><rect fill="#F1F1F1" height="80.5938" rx="2.5" ry="2.5" style="stroke:#181818;stroke-width:0.5;" width="346.2637" x="7" y="7"/><ellipse cx="147.4956" cy="23" fill="#ADD1B2" rx="11" ry="11" style="stroke:#181818;stroke-width:1;"/><path d="M150.4644,28.6406 Q149.8862,28.9375 149.2456,29.0781 Q148.605,29.2344 147.9019,29.2344 Q145.4019,29.2344 144.0737,27.5938 Q142.7612,25.9375 142.7612,22.8125 Q142.7612,19.6875 144.0737,18.0313 Q145.4019,16.375 147.9019,16.375 Q148.605,16.375 149.2456,16.5313 Q149.9019,16.6875 150.4644,16.9844 L150.4644,19.7031 Q149.8394,19.125 149.2456,18.8594 Q148.6519,18.5781 148.0269,18.5781 Q146.6831,18.5781 145.9956,19.6563 Q145.3081,20.7188 145.3081,22.8125 Q145.3081,24.9063 145.9956,25.9844 Q146.6831,27.0469 148.0269,27.0469 Q148.6519,27.0469 149.2456,26.7813 Q149.8394,26.5 150.4644,25.9219 L150.4644,28.6406 Z " fill="#000000"/><text fill="#000000" font-family="sans-serif" font-size="14" lengthAdjust="spacing" textLength="56.7725" x="167.9956" y="27.8467">Account</text><line style="stroke:#181818;stroke-width:0.5;" x1="8" x2="352.2637" y1="39" y2="39"/><rect fill="none" height="6" style="stroke:#C82930;stroke-width:1;" width="6" x="15" y="49.6484"/><text fill="#000000" font-family="sans-serif" font-size="14" lengthAdjust="spacing" textLength="91.0205" x="27" y="55.9951">float balance</text><line style="stroke:#181818;stroke-width:0.5;" x1="8" x2="352.2637" y1="63.2969" y2="63.2969"/><ellipse cx="18" cy="76.9453" fill="#84BE84" rx="3" ry="3" style="stroke:#038048;stroke-width:1;"/><text fill="#000000" font-family="sans-serif" font-size="14" lengthAdjust="spacing" textLength="320.2637" x="27" y="80.292">void transferTo(Account target, float amount)</text></g><!--SRC=[Iyv9B2vMS4nEpY_DAr6evb9Gq5L8oybFB558Iin9p4jE1OfeAvJbPwOeb1GbvXMdfHQ5v6l0r9Sa5gMdbkX0TIJcWWGrkMe1]--></g></svg>